<?xml version="1.0" standalone="no"?>
<!DOCTYPE svg PUBLIC "-//W3C//DTD SVG 20010904//EN"
 "http://www.w3.org/TR/2001/REC-SVG-20010904/DTD/svg10.dtd">
<svg version="1.0" xmlns="http://www.w3.org/2000/svg"
 width="2723.000000pt" height="2723.000000pt" viewBox="0 0 2723.000000 2723.000000"
 preserveAspectRatio="xMidYMid meet">
<metadata>
Created by potrace 1.14, written by Peter Selinger 2001-2017
</metadata>
<g transform="translate(0.000000,2723.000000) scale(0.100000,-0.100000)"
fill="#000000" stroke="none">
<path d="M5774 18631 c-109 -28 -277 -168 -330 -276 -28 -58 -29 -66 -29 -200
0 -138 1 -141 31 -200 73 -139 169 -236 274 -276 39 -15 77 -19 172 -19 l122
0 95 46 c115 56 202 137 247 229 27 56 29 70 32 195 l4 134 -44 86 c-54 107
-155 213 -243 256 -55 27 -70 29 -180 31 -66 1 -134 -2 -151 -6z"/>
<path d="M16730 18617 c-66 -27 -129 -69 -193 -129 -51 -47 -44 -32 -730
-1453 -1572 -3260 -1515 -3140 -1571 -3281 -34 -88 -36 -97 -36 -214 l0 -122
41 -78 c58 -112 142 -201 233 -246 l73 -36 134 4 c126 3 138 5 199 34 36 18
92 54 124 80 53 44 68 65 137 199 152 292 675 1372 1366 2825 417 876 372 786
388 769 21 -22 613 -1278 690 -1464 87 -210 200 -350 335 -414 47 -22 71 -26
169 -29 104 -4 120 -1 180 22 150 59 282 184 316 298 10 33 15 92 15 165 0
110 -1 117 -40 207 -86 202 -420 917 -835 1786 -120 250 -242 515 -271 588
-30 74 -75 170 -101 214 -62 105 -169 214 -253 258 -63 34 -69 35 -190 38
-112 2 -131 0 -180 -21z"/>
<path d="M4468 18286 c-257 -113 -572 -376 -818 -682 -343 -427 -535 -857
-612 -1369 -18 -123 -18 -647 0 -770 72 -477 247 -891 545 -1288 126 -167 224
-275 355 -390 393 -344 774 -550 1222 -661 204 -50 326 -66 550 -73 288 -9
483 16 825 104 494 126 805 304 906 517 27 57 29 69 29 189 l0 129 -42 86
c-32 66 -59 104 -112 158 -105 105 -140 118 -311 122 l-140 3 -125 -65 c-213
-110 -424 -185 -625 -222 -140 -25 -469 -25 -610 0 -268 48 -547 166 -747 317
-110 82 -349 324 -419 424 -163 231 -263 476 -304 750 -30 200 -16 532 31 720
57 231 161 447 304 635 128 168 332 358 468 436 93 54 231 192 268 269 28 57
29 66 29 196 l0 135 -39 80 c-29 59 -58 98 -115 155 -109 108 -145 123 -306
127 -129 3 -131 2 -207 -32z"/>
<path d="M23465 18104 c-16 -3 -49 -9 -73 -14 -26 -7 -49 -7 -60 -1 -19 10
-308 -59 -417 -99 -115 -43 -150 -57 -200 -79 -27 -12 -97 -43 -155 -69 -58
-25 -107 -49 -110 -52 -3 -3 -57 -36 -120 -74 -301 -181 -616 -460 -842 -747
-189 -240 -391 -602 -493 -884 -110 -305 -154 -555 -162 -922 -6 -280 4 -430
42 -639 106 -571 414 -1147 845 -1575 489 -485 1066 -780 1715 -876 154 -23
670 -26 810 -4 445 66 861 219 1231 450 188 118 502 383 657 556 156 174 250
327 276 453 15 74 15 1421 0 1494 -23 106 -124 270 -210 340 -24 20 -69 49
-99 65 -51 26 -65 28 -190 31 -125 3 -141 1 -202 -21 -185 -70 -314 -203 -359
-368 -9 -31 -13 -226 -16 -659 l-4 -614 -103 -101 c-228 -225 -484 -383 -767
-473 -380 -122 -829 -119 -1209 7 -228 76 -505 237 -676 393 -392 357 -602
763 -653 1267 -78 755 291 1472 959 1863 171 100 489 218 588 218 16 0 35 6
41 14 6 7 40 16 75 20 133 13 246 68 339 165 291 301 157 802 -244 915 -59 16
-166 26 -214 20z"/>
<path d="M9575 17639 c-134 -22 -321 -158 -381 -276 -27 -55 -29 -66 -32 -198
l-3 -140 41 -84 c69 -143 178 -235 331 -278 61 -17 141 -18 1514 -18 1636 0
1540 -4 1662 75 80 53 171 151 208 225 54 110 46 308 -18 430 -41 77 -137 175
-206 210 -128 64 0 59 -1606 61 -803 1 -1482 -2 -1510 -7z"/>
<path d="M23889 15418 c-84 -42 -119 -67 -180 -128 -50 -49 -86 -96 -105 -135
-26 -55 -29 -71 -32 -185 -3 -95 0 -140 13 -188 35 -127 162 -278 290 -342 65
-33 75 -35 189 -38 160 -5 224 8 307 64 86 57 190 168 231 247 33 61 33 63 33
202 l0 140 -48 96 c-111 225 -255 319 -486 319 l-107 0 -105 -52z"/>
<path d="M9541 15334 c-140 -38 -296 -158 -349 -270 -26 -56 -27 -67 -27 -205
l0 -145 38 -77 c72 -146 195 -249 330 -277 36 -7 300 -10 837 -8 l785 3 98 48
c118 58 208 140 253 232 28 58 29 66 29 201 l0 140 -43 88 c-74 150 -197 249
-341 276 -33 6 -341 10 -805 9 -625 0 -760 -3 -805 -15z"/>
<path d="M12264 15296 c-122 -61 -211 -143 -259 -238 -35 -70 -35 -72 -35
-198 l0 -128 46 -92 c57 -114 144 -207 230 -248 54 -24 71 -27 194 -30 l135
-3 84 42 c106 53 214 155 257 244 26 54 29 71 32 181 3 117 2 124 -27 195 -56
133 -147 234 -261 288 -48 22 -70 26 -180 29 l-125 4 -91 -46z"/>
<path d="M18902 13995 c-121 -60 -209 -142 -254 -233 -31 -62 -33 -75 -37
-184 l-3 -118 50 -103 c61 -126 136 -208 232 -258 60 -30 74 -33 176 -37 143
-5 215 12 307 74 89 61 152 133 195 221 34 72 34 74 31 191 -4 116 -5 120 -46
203 -53 108 -139 203 -225 250 -62 33 -66 34 -198 37 l-135 4 -93 -47z"/>
<path d="M16334 13383 c-10 -16 -213 -299 -452 -630 l-434 -603 -632 0 -632 0
-11 30 c-6 16 -26 38 -44 49 -110 67 -232 -46 -174 -159 19 -38 63 -60 116
-60 34 0 47 6 76 35 l35 35 650 2 651 3 451 627 451 627 395 1 396 0 339 -615
339 -615 1227 0 1227 0 35 -35 c30 -30 42 -35 81 -35 62 0 115 45 122 105 6
46 -23 100 -66 123 -42 22 -110 9 -142 -27 -15 -17 -28 -38 -28 -46 0 -13
-144 -15 -1211 -13 l-1211 3 -336 612 -337 612 -431 1 -432 0 -18 -27z"/>
<path d="M399 13152 c-66 -33 -75 -109 -17 -157 43 -36 82 -33 125 10 l35 35
1078 0 1078 0 596 -430 596 -430 1834 0 1834 0 55 58 c30 31 177 189 326 351
l270 295 49 -3 c40 -2 54 2 80 24 63 53 63 137 1 190 -88 74 -225 -21 -189
-130 11 -35 11 -37 -42 -93 -29 -32 -170 -185 -313 -340 l-259 -282 -1816 0
-1815 0 -588 425 -589 425 -1094 0 -1094 0 -28 29 c-35 38 -69 45 -113 23z"/>
<path d="M9540 13036 c-143 -39 -286 -150 -345 -268 -35 -71 -35 -71 -35 -208
l0 -138 41 -82 c50 -99 128 -182 215 -228 124 -65 42 -62 1634 -62 1261 0
1453 2 1510 16 132 31 282 148 350 274 32 61 35 72 38 177 3 86 0 123 -13 165
-46 140 -140 259 -247 310 -123 60 -49 58 -1643 57 -1128 0 -1470 -3 -1505
-13z"/>
<path d="M884 12258 c-22 -10 -44 -47 -44 -73 0 -74 99 -111 148 -55 16 20 33
20 877 20 844 0 861 0 877 -20 49 -56 148 -19 148 55 0 74 -99 111 -148 55
-16 -20 -33 -20 -879 -20 -714 0 -863 2 -870 14 -19 32 -70 44 -109 24z"/>
<path d="M20688 11323 c-233 -232 -249 -255 -228 -318 28 -84 121 -111 196
-56 65 48 402 394 413 424 16 42 13 78 -8 111 -26 40 -57 55 -110 56 l-45 0
-218 -217z"/>
<path d="M19488 11313 c-233 -232 -249 -255 -228 -318 28 -84 121 -111 196
-56 65 48 402 394 413 424 16 42 13 78 -8 111 -26 40 -57 55 -110 56 l-45 0
-218 -217z"/>
<path d="M20078 11313 c-233 -232 -249 -255 -228 -318 28 -84 121 -111 196
-56 65 48 402 394 413 424 16 42 13 78 -8 111 -26 40 -57 55 -110 56 l-45 0
-218 -217z"/>
<path d="M21308 11313 c-233 -232 -249 -255 -228 -318 28 -84 121 -111 196
-56 65 48 402 394 413 424 16 42 13 78 -8 111 -26 40 -57 55 -110 56 l-45 0
-218 -217z"/>
<path d="M21918 11313 c-233 -232 -249 -255 -228 -318 28 -84 121 -111 196
-56 65 48 402 394 413 424 16 42 13 78 -8 111 -26 40 -57 55 -110 56 l-45 0
-218 -217z"/>
<path d="M22508 11303 c-233 -232 -249 -255 -228 -318 28 -84 121 -111 196
-56 65 48 402 394 413 424 16 42 13 78 -8 111 -26 40 -57 55 -110 56 l-45 0
-218 -217z"/>
<path d="M23738 11303 c-233 -232 -249 -255 -228 -318 28 -84 121 -111 196
-56 65 48 402 394 413 424 16 42 13 78 -8 111 -26 40 -57 55 -110 56 l-45 0
-218 -217z"/>
<path d="M23118 11293 c-233 -232 -249 -255 -228 -318 28 -84 121 -111 196
-56 65 48 402 394 413 424 16 42 13 78 -8 111 -26 40 -57 55 -110 56 l-45 0
-218 -217z"/>
<path d="M1443 11408 c-64 -31 -49 -136 23 -154 26 -7 84 12 84 27 0 5 738 9
1719 9 1678 0 1720 0 1726 -19 3 -10 19 -24 35 -31 73 -30 140 37 110 109 -21
51 -95 65 -134 26 -13 -13 -219 -15 -1730 -15 -1659 0 -1715 1 -1721 18 -11
35 -69 51 -112 30z"/>
<path d="M6288 11314 c-35 -18 -58 -62 -58 -110 0 -29 8 -44 39 -75 31 -31 46
-39 75 -39 49 0 92 23 111 60 l16 30 5962 0 5962 0 310 -390 310 -390 2660 -2
2660 -3 313 -435 c172 -239 316 -441 319 -449 3 -7 1 -22 -5 -32 -7 -10 -12
-39 -12 -65 0 -39 5 -51 34 -80 30 -30 40 -34 84 -34 156 0 163 220 7 237
l-46 6 -332 463 -332 464 -2660 0 -2660 0 -309 390 -310 390 -5973 0 -5974 0
-38 40 c-33 35 -43 40 -82 40 -24 -1 -56 -7 -71 -16z"/>
<path d="M2104 10538 c-22 -10 -44 -47 -44 -73 0 -74 99 -111 148 -55 16 20
32 20 784 20 743 0 767 -1 773 -19 3 -10 19 -24 35 -31 73 -30 140 37 110 109
-21 51 -95 65 -134 26 -13 -13 -114 -15 -785 -15 -637 0 -771 2 -778 14 -19
32 -70 44 -109 24z"/>
<path d="M14814 10496 c-17 -8 -42 -28 -56 -46 l-25 -32 -4992 33 -4992 33
-452 -451 -452 -451 -56 5 c-52 5 -58 3 -92 -27 -22 -19 -39 -44 -42 -64 -14
-70 49 -146 120 -146 72 0 133 75 120 149 l-6 36 443 442 443 441 4980 -33
c2739 -19 4981 -34 4982 -35 1 0 9 -13 17 -29 34 -65 128 -76 187 -23 63 56
43 165 -36 198 -42 17 -51 17 -91 0z"/>
<path d="M15752 9873 c-11 -43 -28 -113 -37 -155 l-17 -78 -235 0 -234 0 3
-42 3 -43 218 -3 c119 -1 217 -5 217 -7 0 -3 -30 -130 -66 -282 -67 -283 -96
-367 -172 -497 -58 -100 -146 -228 -221 -321 -39 -48 -71 -91 -71 -94 0 -4 6
-16 14 -26 12 -17 20 -12 122 78 150 131 395 401 431 472 5 11 25 73 43 138
l33 119 32 -89 c57 -155 96 -232 167 -324 l27 -36 -82 -80 c-152 -149 -312
-247 -501 -309 -47 -16 -86 -32 -86 -37 0 -22 156 2 276 42 178 58 319 133
470 247 l30 23 50 -41 c27 -22 79 -60 115 -84 86 -56 351 -194 372 -194 15 0
17 15 17 116 l0 115 -122 58 c-68 31 -157 72 -198 90 -41 18 -84 39 -94 46
-18 14 -18 16 16 57 71 86 128 188 201 356 41 94 72 173 69 176 -3 3 -164 6
-359 6 -287 0 -353 2 -353 13 0 11 43 171 66 250 5 16 34 17 430 17 l424 0 0
45 0 45 -410 0 c-225 0 -410 2 -410 4 0 2 18 67 40 145 22 78 40 146 40 151 0
6 -48 10 -119 10 l-119 0 -20 -77z m486 -699 l31 -6 -26 -72 c-29 -80 -78
-182 -121 -250 l-29 -46 -45 48 c-77 83 -209 308 -191 326 8 8 342 8 381 0z"/>
<path d="M21360 9100 l0 -850 24 0 c54 0 116 42 145 98 l12 22 539 0 540 0 0
-53 c0 -29 5 -58 11 -64 19 -19 94 14 134 58 l35 39 0 800 0 800 -90 0 -90 0
0 -30 0 -30 -540 0 -540 0 0 30 0 30 -90 0 -90 0 0 -850z m1260 30 l0 -670
-540 0 -540 0 0 670 0 670 540 0 540 0 0 -670z"/>
<path d="M22168 9763 c-16 -4 -18 -20 -18 -164 l0 -159 -285 0 -285 0 0 -45 0
-45 285 0 285 0 0 -426 0 -426 30 6 c63 12 130 48 150 81 19 31 20 49 20 399
l0 366 131 0 130 0 -3 43 -3 42 -127 3 -128 3 0 164 0 165 -82 -1 c-46 -1 -91
-3 -100 -6z"/>
<path d="M21830 8950 c0 -393 -6 -368 75 -331 46 21 79 54 94 94 7 18 11 134
11 308 l0 279 -90 0 -90 0 0 -350z"/>
<path d="M9434 9923 c-17 -3 -23 -19 -38 -91 -10 -48 -28 -111 -42 -140 -38
-85 -144 -230 -250 -341 -89 -94 -96 -103 -81 -118 15 -15 21 -12 73 32 86 74
249 241 317 325 33 41 64 79 68 84 5 5 37 -20 73 -56 75 -76 149 -124 258
-167 95 -38 118 -40 118 -7 0 19 -15 34 -74 70 -99 61 -191 161 -245 264 -38
74 -41 86 -32 114 6 17 11 33 11 34 0 5 -129 2 -156 -3z"/>
<path d="M10410 9094 l0 -836 37 7 c60 11 91 32 115 78 l22 42 4 773 4 772
-91 0 -91 0 0 -836z"/>
<path d="M11785 9840 l-7 -90 -365 0 -364 0 3 -42 3 -43 250 -5 250 -5 32 -65
c17 -36 34 -82 37 -102 l5 -38 -335 0 -334 0 0 -45 0 -45 885 0 885 0 0 38 0
39 -167 6 c-91 4 -217 7 -280 7 l-113 0 0 38 c1 20 11 66 23 102 l22 65 193 3
192 2 0 45 0 45 -351 0 -350 0 20 26 c20 25 51 112 51 141 0 10 -22 13 -89 13
l-89 0 -7 -90z m317 -245 c-38 -40 -66 -80 -73 -105 l-12 -40 -122 0 -122 0
-19 43 c-10 23 -47 70 -82 105 l-64 62 277 0 277 0 -60 -65z"/>
<path d="M19460 9910 c-9 -16 -1 -30 55 -91 45 -51 73 -93 92 -141 16 -37 32
-68 37 -68 18 0 136 82 136 95 0 6 -13 30 -28 51 -88 121 -261 212 -292 154z"/>
<path d="M17307 9372 c-5 -604 -5 -600 -71 -737 -37 -74 -121 -175 -180 -216
-34 -22 -36 -27 -36 -78 0 -62 -5 -63 114 7 48 28 113 79 162 127 113 112 176
225 226 410 20 75 21 109 26 503 l4 422 249 0 249 0 0 45 c0 28 -5 47 -12 49
-7 3 -173 7 -369 10 l-357 6 -5 -548z"/>
<path d="M5520 9735 l0 -165 -175 0 c-168 0 -175 1 -175 20 0 19 -7 20 -90 20
l-90 0 0 -495 c0 -389 3 -495 13 -495 64 0 127 49 150 115 l14 40 176 3 177 2
0 -240 0 -240 401 0 401 0 38 38 c47 46 60 102 60 252 l0 110 -77 0 c-43 0
-84 -4 -92 -9 -10 -6 -15 -48 -19 -160 l-5 -151 -270 0 -269 0 7 23 c3 12 9
102 12 200 l6 177 178 0 179 0 0 -70 c0 -69 0 -70 26 -70 42 0 94 30 121 70
l24 38 6 436 6 436 -91 0 c-91 0 -92 0 -92 -25 l0 -25 -180 0 -180 0 0 165 0
165 -95 0 -95 0 0 -165z m0 -385 l0 -130 -175 0 -175 0 0 130 0 130 175 0 175
0 0 -130z m550 0 l0 -130 -180 0 -180 0 0 130 0 130 180 0 180 0 0 -130z
m-550 -350 l0 -130 -175 0 -175 0 0 130 0 130 175 0 175 0 0 -130z m550 0 l0
-130 -180 0 -180 0 0 130 0 130 180 0 180 0 0 -130z"/>
<path d="M7090 9855 l0 -45 498 -2 499 -3 -192 -145 -192 -145 -7 -120 c-4
-66 -10 -122 -13 -125 -2 -3 -169 -7 -369 -8 l-364 -4 0 -39 0 -39 370 0 370
0 0 -338 0 -338 -27 -53 c-21 -42 -38 -61 -84 -90 -103 -64 -56 -84 90 -39 89
27 156 71 186 123 22 37 25 54 25 141 0 54 3 210 7 347 l6 247 334 0 333 0 0
38 0 39 -202 6 c-112 4 -263 7 -335 7 l-133 0 0 114 0 113 252 189 c138 104
253 195 256 202 3 9 -132 12 -652 12 l-656 0 0 -45z"/>
<path d="M13326 9874 c-3 -9 -6 -49 -6 -90 l0 -74 -140 0 -140 0 0 -45 0 -45
140 0 140 0 0 -392 c0 -216 3 -512 7 -657 l6 -263 40 5 c48 7 85 32 112 78 19
32 20 55 23 442 l3 407 85 0 85 0 -3 43 -3 42 -82 3 -83 3 0 144 0 145 86 0
85 0 -3 43 -3 42 -82 3 -83 3 0 89 0 90 -89 0 c-72 0 -90 -3 -95 -16z"/>
<path d="M14107 9883 c-4 -3 -7 -44 -7 -89 l0 -84 -192 -2 -193 -3 -3 -42 -3
-43 475 0 476 0 0 45 0 45 -201 0 -200 0 7 23 c14 45 24 93 24 125 l0 32 -88
0 c-49 0 -92 -3 -95 -7z"/>
<path d="M18130 9840 l0 -50 144 0 144 0 -5 -42 c-6 -50 -49 -147 -66 -149 -7
-1 -55 -2 -107 -3 l-95 -1 0 -117 c0 -65 1 -289 3 -498 l2 -380 28 0 c34 0 73
38 99 95 16 36 18 79 21 418 l3 377 210 0 209 0 0 -445 0 -445 29 0 c40 0 75
31 101 92 23 52 24 60 28 481 l4 428 -203 -7 -203 -7 23 34 c22 33 62 115 74
152 6 15 25 17 202 17 l196 0 -3 48 -3 47 -417 3 -418 2 0 -50z"/>
<path d="M20570 9855 l0 -35 -380 0 -380 0 0 -45 0 -45 380 0 380 0 0 -729 c0
-491 3 -732 10 -736 6 -4 34 7 62 22 39 22 59 43 82 84 l31 54 3 733 3 732
-96 0 -95 0 0 -35z"/>
<path d="M19320 9000 c0 -506 3 -740 10 -740 25 0 91 42 119 77 61 74 61 73
61 770 l0 633 -95 0 -95 0 0 -740z"/>
<path d="M10080 9198 c0 -249 4 -459 9 -467 6 -9 18 -11 42 -6 53 11 85 35
111 79 23 41 23 42 26 444 l3 402 -96 0 -95 0 0 -452z"/>
<path d="M17610 9258 c0 -184 -3 -417 -7 -518 l-6 -183 -34 -19 c-22 -13 -33
-28 -33 -42 0 -22 19 -86 25 -86 10 0 504 276 519 290 9 9 -11 110 -22 110 -5
0 -131 -69 -249 -137 l-43 -25 0 411 0 411 75 0 75 0 2 -287 3 -288 26 -3 c35
-4 82 36 105 90 16 38 19 79 22 326 l4 282 -81 0 c-53 0 -81 -4 -81 -11 0 -11
-38 -10 -227 7 l-73 6 0 -334z"/>
<path d="M13901 9528 c-4 -13 -18 -50 -30 -82 -29 -77 -100 -219 -151 -299
-42 -67 -48 -87 -27 -87 20 0 115 47 152 75 l34 27 5 -24 c3 -12 7 -43 11 -67
11 -83 65 -200 131 -287 35 -46 64 -88 64 -92 0 -25 -244 -197 -377 -267 -65
-33 -73 -41 -73 -66 0 -35 5 -35 89 -5 159 58 326 141 439 218 l42 29 88 -54
c108 -67 179 -103 306 -156 132 -55 136 -55 136 13 l0 53 -92 53 c-80 45 -193
122 -277 188 l-24 19 44 59 c86 113 125 197 143 311 l11 72 55 -37 c57 -38
135 -70 146 -59 4 3 -14 39 -38 79 -79 127 -125 220 -158 316 l-33 92 -98 0
c-55 0 -99 -2 -99 -5 0 -2 10 -30 21 -61 19 -51 21 -71 17 -213 -5 -145 -7
-161 -36 -235 -17 -44 -46 -103 -64 -132 -25 -43 -35 -51 -45 -42 -26 21 -93
144 -118 216 -22 64 -25 87 -25 221 0 112 4 158 16 186 24 59 17 65 -86 65
-85 0 -91 -1 -99 -22z"/>
<path d="M18388 8993 l-3 -418 -32 -67 c-19 -41 -53 -88 -87 -123 -38 -37 -56
-63 -56 -80 0 -34 20 -32 83 9 103 66 181 164 213 269 10 31 20 57 23 57 3 0
24 -28 46 -63 44 -69 231 -267 252 -267 25 0 13 41 -34 118 -25 42 -66 119
-90 171 l-44 94 -42 -7 c-23 -3 -51 -8 -62 -11 -20 -6 -20 -4 -17 364 l4 371
-75 0 -75 0 -4 -417z"/>
<path d="M13040 9069 l0 -322 46 6 c53 6 88 34 115 92 16 35 19 68 19 293 l0
252 -90 0 -90 0 0 -321z"/>
<path d="M19710 9040 c0 -330 1 -350 18 -350 35 0 107 45 131 83 l24 37 173 0
c193 0 184 3 184 -76 0 -38 3 -44 21 -44 57 0 123 58 147 129 7 21 15 141 19
303 l6 268 -96 0 c-90 0 -97 -1 -97 -20 0 -19 -7 -20 -170 -20 -163 0 -170 1
-170 20 0 19 -7 20 -95 20 l-95 0 0 -350z m530 40 l0 -180 -170 0 -170 0 0
180 0 180 170 0 170 0 0 -180z"/>
<path d="M9190 8820 c0 -592 -10 -539 90 -500 45 18 74 20 265 20 186 0 215
-2 215 -15 0 -39 89 -23 134 23 43 46 56 107 56 264 l0 139 -92 -3 -93 -3 -3
-157 -3 -158 -194 0 -195 0 0 410 0 410 140 0 140 0 0 -230 0 -230 35 0 c49 0
90 23 120 67 25 37 25 39 25 260 l0 223 -320 0 -320 0 0 -520z"/>
<path d="M11310 9014 c0 -171 3 -313 6 -316 10 -11 78 14 107 38 l29 24 394 0
394 0 0 -35 c0 -44 19 -46 82 -6 95 60 105 94 113 376 l7 230 -566 0 -566 0 0
-311z m930 146 l0 -70 -365 0 -365 0 0 70 0 70 365 0 365 0 0 -70z m0 -235 l0
-75 -371 0 -371 0 6 23 c3 12 6 46 6 75 l0 52 365 0 365 0 0 -75z"/>
<path d="M11090 8510 l0 -230 34 0 c45 0 89 37 124 104 24 47 26 62 30 204 l4
152 -96 0 -96 0 0 -230z"/>
<path d="M11767 8723 c-4 -3 -7 -80 -7 -170 l0 -163 36 0 c81 0 154 126 154
265 l0 75 -88 0 c-49 0 -92 -3 -95 -7z"/>
<path d="M12480 8500 l0 -220 37 0 c29 0 43 8 74 39 56 60 73 122 74 271 l0
125 -92 3 -93 3 0 -221z"/>
<path d="M11430 8484 l0 -226 38 7 c20 3 41 11 47 16 13 13 692 12 700 -1 3
-5 21 -10 40 -10 46 0 86 37 117 107 22 48 27 77 30 168 l3 110 -90 -4 c-49
-1 -92 -5 -94 -6 -2 -2 -6 -63 -9 -134 l-5 -131 -310 0 c-291 0 -309 1 -302
18 10 23 28 279 21 297 -4 12 -25 15 -96 15 l-90 0 0 -226z"/>
</g>
</svg>
